<?xml version="1.0" standalone="no"?>
<!DOCTYPE svg PUBLIC "-//W3C//DTD SVG 20010904//EN"
 "http://www.w3.org/TR/2001/REC-SVG-20010904/DTD/svg10.dtd">
<svg version="1.0" xmlns="http://www.w3.org/2000/svg"
 width="512.000000pt" height="512.000000pt" viewBox="0 0 512.000000 512.000000"
 preserveAspectRatio="xMidYMid meet">

<g transform="translate(0.000000,512.000000) scale(0.100000,-0.100000)"
fill="#000000" stroke="none">
<path d="M400 2600 l0 -1800 2160 0 2160 0 0 1800 0 1800 -2160 0 -2160 0 0
-1800z m4240 1400 l0 -320 -2080 0 -2080 0 0 320 0 320 2080 0 2080 0 0 -320z
m0 -1760 l0 -1360 -2080 0 -2080 0 0 1360 0 1360 2080 0 2080 0 0 -1360z"/>
<path d="M640 4000 l0 -160 160 0 160 0 0 160 0 160 -160 0 -160 0 0 -160z
m240 0 l0 -80 -80 0 -80 0 0 80 0 80 80 0 80 0 0 -80z"/>
<path d="M1120 4000 l0 -160 160 0 160 0 0 160 0 160 -160 0 -160 0 0 -160z
m240 0 l0 -80 -80 0 -80 0 0 80 0 80 80 0 80 0 0 -80z"/>
<path d="M1600 4000 l0 -160 160 0 160 0 0 160 0 160 -160 0 -160 0 0 -160z
m240 0 l0 -80 -80 0 -80 0 0 80 0 80 80 0 80 0 0 -80z"/>
<path d="M3280 4000 l0 -160 600 0 600 0 0 160 0 160 -600 0 -600 0 0 -160z
m1120 0 l0 -80 -520 0 -520 0 0 80 0 80 520 0 520 0 0 -80z"/>
<path d="M1600 2880 l0 -80 -42 0 -43 0 -197 -368 -198 -368 0 -72 0 -72 240
0 240 0 0 -240 0 -240 80 0 80 0 0 240 0 240 80 0 80 0 0 40 0 40 -80 0 -80 0
0 480 0 480 -80 0 -80 0 0 -80z m0 -550 l0 -330 -160 0 -160 0 0 36 c0 27 38
106 158 330 86 161 158 294 160 294 1 0 2 -148 2 -330z"/>
<path d="M2240 2920 l0 -40 -40 0 -40 0 0 -680 0 -680 40 0 40 0 0 -40 0 -40
320 0 320 0 0 40 0 40 40 0 40 0 0 680 0 680 -40 0 -40 0 0 40 0 40 -320 0
-320 0 0 -40z m560 -720 l0 -680 -240 0 -240 0 0 680 0 680 240 0 240 0 0
-680z"/>
<path d="M3680 2880 l0 -80 -42 0 -43 0 -197 -368 -198 -368 0 -72 0 -72 240
0 240 0 0 -240 0 -240 80 0 80 0 0 240 0 240 80 0 80 0 0 40 0 40 -80 0 -80 0
0 480 0 480 -80 0 -80 0 0 -80z m0 -550 l0 -330 -160 0 -160 0 0 36 c0 27 38
106 158 330 86 161 158 294 160 294 1 0 2 -148 2 -330z"/>
</g>
</svg>
