<svg width="24" height="24" viewBox="0 0 24 24" fill="none" xmlns="http://www.w3.org/2000/svg">
<path opacity="0.4" d="M12 22C17.5228 22 22 17.5228 22 12C22 6.47715 17.5228 2 12 2C6.47715 2 2 6.47715 2 12C2 17.5228 6.47715 22 12 22Z" fill="#292D32"/>
<path d="M13.0599 12.0001L15.3599 9.70011C15.6499 9.41011 15.6499 8.93011 15.3599 8.64011C15.0699 8.35011 14.5899 8.35011 14.2999 8.64011L11.9999 10.9401L9.69986 8.64011C9.40986 8.35011 8.92986 8.35011 8.63986 8.64011C8.34986 8.93011 8.34986 9.41011 8.63986 9.70011L10.9399 12.0001L8.63986 14.3001C8.34986 14.5901 8.34986 15.0701 8.63986 15.3601C8.78986 15.5101 8.97986 15.5801 9.16986 15.5801C9.35986 15.5801 9.54986 15.5101 9.69986 15.3601L11.9999 13.0601L14.2999 15.3601C14.4499 15.5101 14.6399 15.5801 14.8299 15.5801C15.0199 15.5801 15.2099 15.5101 15.3599 15.3601C15.6499 15.0701 15.6499 14.5901 15.3599 14.3001L13.0599 12.0001Z" fill="#292D32"/>
</svg>
