<svg width="24" height="24" viewBox="0 0 24 24" fill="none" xmlns="http://www.w3.org/2000/svg">
<path opacity="0.4" d="M21 22H3C2.59 22 2.25 21.66 2.25 21.25C2.25 20.84 2.59 20.5 3 20.5H21C21.41 20.5 21.75 20.84 21.75 21.25C21.75 21.66 21.41 22 21 22Z" fill="#292D32"/>
<path opacity="0.4" d="M19.02 3.48004C17.08 1.54004 15.18 1.49004 13.19 3.48004L11.98 4.69004C11.88 4.79004 11.84 4.95004 11.88 5.09004C12.64 7.74004 14.76 9.86003 17.41 10.62C17.45 10.63 17.49 10.64 17.53 10.64C17.64 10.64 17.74 10.6 17.82 10.52L19.02 9.31004C20.01 8.33004 20.49 7.38004 20.49 6.42004C20.5 5.43004 20.02 4.47004 19.02 3.48004Z" fill="#292D32"/>
<path d="M15.6098 11.53C15.3198 11.39 15.0398 11.25 14.7698 11.09C14.5498 10.96 14.3398 10.82 14.1298 10.67C13.9598 10.56 13.7598 10.4 13.5698 10.24C13.5498 10.23 13.4798 10.17 13.3998 10.09C13.0698 9.81005 12.6998 9.45005 12.3698 9.05005C12.3398 9.03005 12.2898 8.96005 12.2198 8.87005C12.1198 8.75005 11.9498 8.55005 11.7998 8.32005C11.6798 8.17005 11.5398 7.95005 11.4098 7.73005C11.2498 7.46005 11.1098 7.19005 10.9698 6.91005C10.8298 6.61005 10.7198 6.32005 10.6198 6.05005L4.33983 12.33C4.20983 12.46 4.08983 12.71 4.05983 12.88L3.51983 16.71C3.41983 17.39 3.60983 18.03 4.02983 18.46C4.38983 18.81 4.88983 19 5.42983 19C5.54983 19 5.66983 18.99 5.78983 18.97L9.62983 18.43C9.80983 18.4 10.0598 18.28 10.1798 18.15L16.4598 11.87C16.1798 11.77 15.9098 11.66 15.6098 11.53Z" fill="#292D32"/>
</svg>
