<?xml version="1.0" standalone="no"?>
<!DOCTYPE svg PUBLIC "-//W3C//DTD SVG 20010904//EN"
 "http://www.w3.org/TR/2001/REC-SVG-20010904/DTD/svg10.dtd">
<svg version="1.0" xmlns="http://www.w3.org/2000/svg"
 width="512.000000pt" height="512.000000pt" viewBox="0 0 512.000000 512.000000"
 preserveAspectRatio="xMidYMid meet">

<g transform="translate(0.000000,512.000000) scale(0.100000,-0.100000)"
fill="#000000" stroke="none">
<path d="M4349 4539 c-40 -43 -114 -169 -140 -239 -23 -61 -16 -93 21 -105 22
-7 70 17 70 36 0 22 81 182 116 231 32 43 36 54 28 76 -14 42 -57 42 -95 1z"/>
<path d="M4588 4235 c-207 -132 -230 -155 -193 -195 10 -11 27 -20 38 -20 17
0 344 200 390 238 20 17 23 65 5 79 -34 26 -50 20 -240 -102z"/>
<path d="M693 4245 c-99 -30 -170 -91 -220 -188 -24 -45 -28 -67 -31 -163 l-4
-110 -47 -21 c-60 -28 -108 -79 -170 -182 -61 -100 -78 -153 -92 -281 -10 -86
-6 -152 45 -720 31 -344 77 -857 101 -1140 25 -283 51 -539 59 -568 39 -143
125 -214 303 -248 87 -16 260 -27 738 -46 465 -18 3020 -17 3084 1 59 17 111
69 111 110 0 64 -55 93 -200 106 l-76 6 37 39 c72 76 69 54 179 1172 64 648
99 1039 95 1068 -19 126 -122 231 -244 249 l-46 6 -5 310 c-5 308 -5 310 -31
365 -35 75 -98 136 -177 173 l-67 31 -465 8 c-892 14 -2636 38 -2735 37 -55 0
-119 -6 -142 -14z m1627 -125 c1858 -26 1697 -22 1745 -47 22 -12 54 -36 72
-55 61 -63 63 -77 63 -398 l0 -290 -592 2 -593 3 -50 24 c-33 16 -78 54 -130
110 -219 236 -274 276 -404 301 -34 6 -388 10 -967 10 l-914 0 0 83 c1 133 42
210 134 253 63 29 -106 29 1636 4z m185 -486 c48 -25 87 -60 196 -180 74 -82
155 -161 180 -177 91 -57 86 -57 780 -57 425 0 655 -4 689 -11 62 -13 123 -67
138 -121 8 -29 -11 -254 -90 -1060 -110 -1133 -103 -1084 -181 -1136 l-41 -27
-1752 -3 -1751 -2 -49 32 c-36 25 -53 45 -66 78 -23 61 -242 2522 -228 2570
13 45 53 94 92 113 30 15 121 17 1028 14 l995 -2 60 -31z"/>
<path d="M2972 2879 c-24 -9 -42 -44 -35 -70 3 -9 54 -65 114 -125 l109 -108
-105 -107 c-111 -112 -124 -139 -87 -172 37 -34 61 -21 171 88 l106 104 111
-111 c117 -115 146 -131 181 -95 36 35 20 64 -95 181 l-111 111 89 91 c95 96
108 125 72 157 -36 33 -61 21 -156 -73 l-92 -90 -108 109 c-60 60 -116 111
-125 114 -9 2 -27 0 -39 -4z"/>
<path d="M1481 2685 l-127 -125 -109 110 c-61 61 -118 113 -128 116 -30 10
-67 -22 -67 -58 0 -26 17 -48 110 -142 l109 -111 -111 -111 c-84 -85 -110
-118 -110 -138 -1 -36 19 -56 55 -56 25 0 49 19 141 110 l111 109 96 -94 c79
-78 101 -95 126 -95 36 0 56 20 56 56 0 20 -24 50 -97 122 l-96 96 125 127
c131 132 142 152 105 189 -37 37 -57 26 -189 -105z"/>
<path d="M2176 1795 c-97 -20 -189 -52 -277 -96 -138 -69 -319 -221 -319 -269
0 -26 34 -60 60 -60 11 0 58 35 106 79 359 329 908 330 1266 2 66 -60 101 -66
127 -19 20 35 8 57 -74 128 -116 99 -269 179 -425 220 -109 29 -358 37 -464
15z"/>
<path d="M4695 3905 c-82 -7 -155 -14 -162 -14 -20 -2 -43 -31 -43 -55 0 -13
9 -31 20 -41 18 -16 29 -16 237 -1 196 15 220 19 236 38 21 25 21 37 1 66 -18
26 -50 27 -289 7z"/>
</g>
</svg>
